<svg xmlns="http://www.w3.org/2000/svg" viewBox="0 0 30 40"><polygon points="30 40 0 0 1.25 0 30 38.334 30 40"/><polygon points="30 13.101 30 10.876 27.192 11.492 27.658 13.615 30 13.101"/><path d="M7.962,10.616v-1.553h1.745v1.745h-1.601l.261.348h1.34v1.745h-.032l2.933,3.911h6.744c-.078.031-.171.053-.246.086-1.312.574-2.296,1.363-2.949,2.365-.292.449-.509.912-.671,1.386l6.192,8.256c.557.163,1.144.318,1.779.46,1.817.399,2.976.823,3.475,1.272s.749.959.749,1.527c0,.6-.263,1.126-.787,1.58-.309.268-.704.447-1.168.557l.665.887h3.609v-9.925c-1.306-.561-3.229-1.116-5.779-1.665-1.198-.249-1.957-.519-2.276-.809-.329-.279-.494-.594-.494-.943,0-.479.2-.886.6-1.221.399-.334.993-.502,1.782-.502.958,0,1.709.225,2.253.675.544.45.901,1.168,1.071,2.157l2.844-.167v-6.184l-1.609.353h0s-3.342.733-3.342.733h0s-.733-3.343-.733-3.343l-.466-2.123-.669-3.047-.443-2.018-.423-1.927h0s3.342-.733,3.342-.733h0s4.342-.952,4.342-.952v-1.279h-6.964V0H5.097v6.796l2.865,3.82ZM18.427,2.784h1.745v1.743h-1.745v-1.743ZM18.427,4.876h1.745v1.745h-1.745v-1.745ZM18.427,13.249h1.745v1.743h-1.745v-1.743ZM16.334.69h1.744v1.745h-1.744V.69ZM16.334,6.97h1.744v1.745h-1.744v-1.745ZM16.334,11.155h1.744v1.745h-1.744v-1.745ZM14.242.69h1.744v1.745h-1.744V.69ZM14.242,6.97h1.744v1.745h-1.744v-1.745ZM14.241,9.063h1.745v1.745h-1.745v-1.745ZM12.148.69h1.745v1.745h-1.745V.69ZM12.148,6.97h1.745v1.745h-1.745v-1.745ZM10.055.69h1.745v1.745h-1.745V.69ZM10.055,6.97h1.745v1.745h-1.745v-1.745ZM7.962,2.784h1.745v1.745h-1.745v-1.745ZM7.962,4.876h1.745v1.745h-1.745v-1.745ZM7.962,6.97h1.745v1.743h-1.745v-1.743Z"/><polygon points="30 5.567 26.081 6.426 26.524 8.444 30 7.682 30 5.567"/><rect x="27.678" y="35.573" width="2.322" height=".412"/><rect x="27.678" y="36.383" width="2.322" height=".068"/><rect x="27.678" y="36.699" width="2.322" height=".068"/><rect x="27.966" y="37.014" width="2.034" height=".068"/><rect x="28.266" y="37.33" width="1.734" height=".068"/><rect x="28.534" y="37.645" width="1.466" height=".068"/><rect x="28.817" y="37.961" width="1.183" height=".068"/></svg>