<svg xmlns="http://www.w3.org/2000/svg" viewBox="0 0 220.142 361.315"><defs><linearGradient id="rb2-glass-fill-ci-layer1" x1="87.316" y1="103.92" x2="87.316" y2="327.726" gradientUnits="userSpaceOnUse"><stop offset="0" stop-color="#abfd55"></stop><stop offset="1" stop-color="#76d313"></stop></linearGradient><linearGradient id="rb2-glass-fill-ci-layer2" x1="87.316" y1="103.92" x2="87.316" y2="327.726" gradientUnits="userSpaceOnUse"><stop offset="0" stop-color="#ffe156"></stop><stop offset="1" stop-color="#e4bb00"></stop></linearGradient><linearGradient id="rb2-glass-fill-ci-layer3" x1="87.316" y1="103.92" x2="87.316" y2="327.726" gradientUnits="userSpaceOnUse"><stop offset="0" stop-color="#57f3ff"></stop><stop offset="1" stop-color="#00d3e4"></stop></linearGradient><mask id="rb2-glass-mask-ci"><svg x="3.344" y="100.626" width="167.943" height="230.052" preserveAspectRatio="none" viewBox="0 0 1 1"><rect fill="white" x="0" y="0" width="1" height="1"></rect><rect fill="black" x="0" y="0" width="1" height="calc(100% - var(--progress, 0) * 100%)"></rect></svg></mask></defs><g class="lime layer1 palette0"><g class="color3"><path d="M170.839,16.071c19.36,0,35.11,15.75,35.11,35.11s-15.75,35.11-35.11,35.11-35.11-15.75-35.11-35.11,15.75-35.11,35.11-35.11M170.839,14.571c-20.219,0-36.61,16.391-36.61,36.61s16.391,36.61,36.61,36.61,36.61-16.391,36.61-36.61-16.391-36.61-36.61-36.61h0Z"></path><path d="M152.89,32.03l14.385,15.348c.88.939,2.426.047,2.053-1.185l-6.099-20.132c-1.145-3.779-5.511-5.505-8.931-3.531h0c-3.419,1.974-4.107,6.619-1.407,9.5h0Z"></path><path d="M145.28,57.149l20.485-4.784c1.254-.293,1.254-2.077,0-2.37l-20.485-4.784c-3.845-.898-7.523,2.02-7.523,5.969h0c0,3.948,3.678,6.867,7.523,5.969Z"></path><path d="M188.788,70.331l-14.385-15.348c-.88-.939-2.426-.047-2.053,1.185l6.099,20.132c1.145,3.779,5.511,5.505,8.931,3.531h0c3.419-1.974,4.107-6.619,1.407-9.5h0Z"></path></g><g class="color2"><path d="M170.839,17.509c18.566,0,33.671,15.105,33.671,33.671s-15.105,33.671-33.671,33.671-33.671-15.105-33.671-33.671,15.105-33.671,33.671-33.671M170.839,16.071c-19.391,0-35.11,15.719-35.11,35.11s15.719,35.11,35.11,35.11,35.11-15.719,35.11-35.11-15.719-35.11-35.11-35.11h0Z"></path><path d="M164.87,25.621l4.784,20.485c.293,1.254,2.077,1.254,2.37,0l4.784-20.485c.898-3.845-2.02-7.523-5.969-7.523h0c-3.948,0-6.867,3.678-5.969,7.523Z"></path><path d="M163.228,76.3l6.099-20.132c.373-1.232-1.172-2.124-2.053-1.185l-14.385,15.348c-2.7,2.881-2.012,7.525,1.407,9.5h0c3.419,1.974,7.786.248,8.931-3.531h0Z"></path><path d="M195.958,58.791l-20.132-6.099c-1.232-.373-2.124,1.172-1.185,2.053l15.348,14.385c2.881,2.7,7.525,2.012,9.5-1.407h0c1.974-3.419.248-7.786-3.531-8.931h0Z"></path><path d="M189.99,33.232l-15.348,14.385c-.939.88-.047,2.426,1.185,2.053l20.132-6.099c3.779-1.145,5.505-5.511,3.531-8.931h0c-1.974-3.419-6.619-4.107-9.5-1.407h0Z"></path></g><g class="color1"><path d="M145.665,43.515l20.132,6.099c1.232.373,2.124-1.172,1.185-2.053l-15.348-14.385c-2.881-2.7-7.525-2.012-9.5,1.407h0c-1.974,3.419-.248,7.786,3.531,8.931h0Z"></path><path d="M151.634,69.074l15.348-14.385c.939-.88.047-2.426-1.185-2.053l-20.132,6.099c-3.779,1.145-5.505,5.511-3.531,8.931h0c1.974,3.419,6.619,4.107,9.5,1.407h0Z"></path><path d="M176.753,76.685l-4.784-20.485c-.293-1.254-2.077-1.254-2.37,0l-4.784,20.485c-.898,3.845,2.02,7.523,5.969,7.523h0c3.948,0,6.867-3.678,5.969-7.523Z"></path><path d="M196.343,45.157l-20.485,4.784c-1.254.293-1.254,2.077,0,2.37l20.485,4.784c3.845.898,7.523-2.02,7.523-5.969h0c0-3.948-3.678-6.867-7.523-5.969Z"></path><path d="M178.45,26.061l-6.099,20.132c-.373,1.232,1.172,2.124,2.053,1.185l14.385-15.348c2.7-2.881,2.012-7.525-1.407-9.5h0c-3.419-1.974-7.786-.248-8.931,3.531h0Z"></path><path d="M170.784,11.126c22.056,0,40,17.944,40,40s-17.944,40-40,40-40-17.944-40-40,17.944-40,40-40M170.784,1.126c-27.614,0-50,22.386-50,50s22.386,50,50,50,50-22.386,50-50S198.398,1.126,170.784,1.126h0Z"></path></g></g><g class="lime layer2 palette1"><g class="color3"><path d="M170.839,16.071c19.36,0,35.11,15.75,35.11,35.11s-15.75,35.11-35.11,35.11-35.11-15.75-35.11-35.11,15.75-35.11,35.11-35.11M170.839,14.571c-20.219,0-36.61,16.391-36.61,36.61s16.391,36.61,36.61,36.61,36.61-16.391,36.61-36.61-16.391-36.61-36.61-36.61h0Z"></path><path d="M152.89,32.03l14.385,15.348c.88.939,2.426.047,2.053-1.185l-6.099-20.132c-1.145-3.779-5.511-5.505-8.931-3.531h0c-3.419,1.974-4.107,6.619-1.407,9.5h0Z"></path><path d="M145.28,57.149l20.485-4.784c1.254-.293,1.254-2.077,0-2.37l-20.485-4.784c-3.845-.898-7.523,2.02-7.523,5.969h0c0,3.948,3.678,6.867,7.523,5.969Z"></path><path d="M188.788,70.331l-14.385-15.348c-.88-.939-2.426-.047-2.053,1.185l6.099,20.132c1.145,3.779,5.511,5.505,8.931,3.531h0c3.419-1.974,4.107-6.619,1.407-9.5h0Z"></path></g><g class="color2"><path d="M170.839,17.509c18.566,0,33.671,15.105,33.671,33.671s-15.105,33.671-33.671,33.671-33.671-15.105-33.671-33.671,15.105-33.671,33.671-33.671M170.839,16.071c-19.391,0-35.11,15.719-35.11,35.11s15.719,35.11,35.11,35.11,35.11-15.719,35.11-35.11-15.719-35.11-35.11-35.11h0Z"></path><path d="M164.87,25.621l4.784,20.485c.293,1.254,2.077,1.254,2.37,0l4.784-20.485c.898-3.845-2.02-7.523-5.969-7.523h0c-3.948,0-6.867,3.678-5.969,7.523Z"></path><path d="M163.228,76.3l6.099-20.132c.373-1.232-1.172-2.124-2.053-1.185l-14.385,15.348c-2.7,2.881-2.012,7.525,1.407,9.5h0c3.419,1.974,7.786.248,8.931-3.531h0Z"></path><path d="M195.958,58.791l-20.132-6.099c-1.232-.373-2.124,1.172-1.185,2.053l15.348,14.385c2.881,2.7,7.525,2.012,9.5-1.407h0c1.974-3.419.248-7.786-3.531-8.931h0Z"></path><path d="M189.99,33.232l-15.348,14.385c-.939.88-.047,2.426,1.185,2.053l20.132-6.099c3.779-1.145,5.505-5.511,3.531-8.931h0c-1.974-3.419-6.619-4.107-9.5-1.407h0Z"></path></g><g class="color1"><path d="M145.665,43.515l20.132,6.099c1.232.373,2.124-1.172,1.185-2.053l-15.348-14.385c-2.881-2.7-7.525-2.012-9.5,1.407h0c-1.974,3.419-.248,7.786,3.531,8.931h0Z"></path><path d="M151.634,69.074l15.348-14.385c.939-.88.047-2.426-1.185-2.053l-20.132,6.099c-3.779,1.145-5.505,5.511-3.531,8.931h0c1.974,3.419,6.619,4.107,9.5,1.407h0Z"></path><path d="M176.753,76.685l-4.784-20.485c-.293-1.254-2.077-1.254-2.37,0l-4.784,20.485c-.898,3.845,2.02,7.523,5.969,7.523h0c3.948,0,6.867-3.678,5.969-7.523Z"></path><path d="M196.343,45.157l-20.485,4.784c-1.254.293-1.254,2.077,0,2.37l20.485,4.784c3.845.898,7.523-2.02,7.523-5.969h0c0-3.948-3.678-6.867-7.523-5.969Z"></path><path d="M178.45,26.061l-6.099,20.132c-.373,1.232,1.172,2.124,2.053,1.185l14.385-15.348c2.7-2.881,2.012-7.525-1.407-9.5h0c-3.419-1.974-7.786-.248-8.931,3.531h0Z"></path><path d="M170.784,11.126c22.056,0,40,17.944,40,40s-17.944,40-40,40-40-17.944-40-40,17.944-40,40-40M170.784,1.126c-27.614,0-50,22.386-50,50s22.386,50,50,50,50-22.386,50-50S198.398,1.126,170.784,1.126h0Z"></path></g></g><g class="lime layer3 palette2"><g class="color3"><path d="M170.839,16.071c19.36,0,35.11,15.75,35.11,35.11s-15.75,35.11-35.11,35.11-35.11-15.75-35.11-35.11,15.75-35.11,35.11-35.11M170.839,14.571c-20.219,0-36.61,16.391-36.61,36.61s16.391,36.61,36.61,36.61,36.61-16.391,36.61-36.61-16.391-36.61-36.61-36.61h0Z"></path><path d="M152.89,32.03l14.385,15.348c.88.939,2.426.047,2.053-1.185l-6.099-20.132c-1.145-3.779-5.511-5.505-8.931-3.531h0c-3.419,1.974-4.107,6.619-1.407,9.5h0Z"></path><path d="M145.28,57.149l20.485-4.784c1.254-.293,1.254-2.077,0-2.37l-20.485-4.784c-3.845-.898-7.523,2.02-7.523,5.969h0c0,3.948,3.678,6.867,7.523,5.969Z"></path><path d="M188.788,70.331l-14.385-15.348c-.88-.939-2.426-.047-2.053,1.185l6.099,20.132c1.145,3.779,5.511,5.505,8.931,3.531h0c3.419-1.974,4.107-6.619,1.407-9.5h0Z"></path></g><g class="color2"><path d="M170.839,17.509c18.566,0,33.671,15.105,33.671,33.671s-15.105,33.671-33.671,33.671-33.671-15.105-33.671-33.671,15.105-33.671,33.671-33.671M170.839,16.071c-19.391,0-35.11,15.719-35.11,35.11s15.719,35.11,35.11,35.11,35.11-15.719,35.11-35.11-15.719-35.11-35.11-35.11h0Z"></path><path d="M164.87,25.621l4.784,20.485c.293,1.254,2.077,1.254,2.37,0l4.784-20.485c.898-3.845-2.02-7.523-5.969-7.523h0c-3.948,0-6.867,3.678-5.969,7.523Z"></path><path d="M163.228,76.3l6.099-20.132c.373-1.232-1.172-2.124-2.053-1.185l-14.385,15.348c-2.7,2.881-2.012,7.525,1.407,9.5h0c3.419,1.974,7.786.248,8.931-3.531h0Z"></path><path d="M195.958,58.791l-20.132-6.099c-1.232-.373-2.124,1.172-1.185,2.053l15.348,14.385c2.881,2.7,7.525,2.012,9.5-1.407h0c1.974-3.419.248-7.786-3.531-8.931h0Z"></path><path d="M189.99,33.232l-15.348,14.385c-.939.88-.047,2.426,1.185,2.053l20.132-6.099c3.779-1.145,5.505-5.511,3.531-8.931h0c-1.974-3.419-6.619-4.107-9.5-1.407h0Z"></path></g><g class="color1"><path d="M145.665,43.515l20.132,6.099c1.232.373,2.124-1.172,1.185-2.053l-15.348-14.385c-2.881-2.7-7.525-2.012-9.5,1.407h0c-1.974,3.419-.248,7.786,3.531,8.931h0Z"></path><path d="M151.634,69.074l15.348-14.385c.939-.88.047-2.426-1.185-2.053l-20.132,6.099c-3.779,1.145-5.505,5.511-3.531,8.931h0c1.974,3.419,6.619,4.107,9.5,1.407h0Z"></path><path d="M176.753,76.685l-4.784-20.485c-.293-1.254-2.077-1.254-2.37,0l-4.784,20.485c-.898,3.845,2.02,7.523,5.969,7.523h0c3.948,0,6.867-3.678,5.969-7.523Z"></path><path d="M196.343,45.157l-20.485,4.784c-1.254.293-1.254,2.077,0,2.37l20.485,4.784c3.845.898,7.523-2.02,7.523-5.969h0c0-3.948-3.678-6.867-7.523-5.969Z"></path><path d="M178.45,26.061l-6.099,20.132c-.373,1.232,1.172,2.124,2.053,1.185l14.385-15.348c2.7-2.881,2.012-7.525-1.407-9.5h0c-3.419-1.974-7.786-.248-8.931,3.531h0Z"></path><path d="M170.784,11.126c22.056,0,40,17.944,40,40s-17.944,40-40,40-40-17.944-40-40,17.944-40,40-40M170.784,1.126c-27.614,0-50,22.386-50,50s22.386,50,50,50,50-22.386,50-50S198.398,1.126,170.784,1.126h0Z"></path></g></g><g class="fluids" mask="url(#rb2-glass-mask-ci)"><path class="layer1" d="M168.196,101.126h-46.019c8.08,7.455,12.572,18.568,11.083,30.28-1.183,9.299-5.925,17.589-13.355,23.344-6.229,4.825-13.714,7.375-21.45,7.375-1.49,0-2.989-.095-4.492-.286-19.225-2.444-32.877-20.074-30.434-39.298,1.079-8.491,5.163-15.964,11.089-21.415h-33.733l3.965,3.581-.26.647c-1.835,4.573-3.083,9.387-3.708,14.308-.625,4.92-.622,9.893.01,14.78l.089.691-13.985,7.311c-1.288.673-1.836,2.192-1.273,3.532l8.188,19.522c.555,1.32,2.052,2.011,3.412,1.566l15.047-4.864.431.548c6.141,7.823,14.202,13.958,23.311,17.745l.645.268-.647,15.426.536-.015c.705-.021,1.409-.038,2.115-.014l.374.01c.465.006.929.019,1.393.035.621.023,1.24.059,1.861.102l.143.01c.457.031.913.062,1.369.104.2.019.525.056.873.097.272.032.514.17.682.388.167.217.238.486.2.757-.076.537-.555.913-1.099.861-1.139-.115-2.54-.253-2.579-.255-1.083-.069-2.163-.108-3.215-.116-.974-.005-2.594.032-3.588.084l-.558.03-6.229-14.512c-.572-1.336-2.045-1.995-3.425-1.539l-20.089,6.679c-1.379.459-2.163,1.87-1.822,3.283l3.7,15.354-.581.388c-8.204,5.476-14.927,13.054-19.442,21.916l-.316.621-15.704-1.864c-1.44-.166-2.752.777-3.043,2.197l-4.261,20.737c-.292,1.424.538,2.808,1.932,3.22l15.135,4.469.046.696c.324,4.917,1.282,9.796,2.847,14.502,1.564,4.707,3.719,9.188,6.403,13.322l.38.585-9.445,12.642c-.871,1.165-.707,2.771.38,3.734l15.829,14.06c1.086.964,2.7.935,3.754-.064l11.46-10.895.625.308c8.921,4.396,18.848,6.441,28.693,5.913l.697-.037,6.23,14.513c.452,1.052,1.457,1.685,2.534,1.685.295,0,.596-.047.892-.146l20.088-6.679c1.378-.458,2.161-1.87,1.822-3.284l-3.7-15.353.58-.388c8.207-5.477,14.93-13.055,19.441-21.916l.316-.621,15.707,1.864c1.414.16,2.756-.807,3.041-2.197l4.26-20.736c.289-1.4-.56-2.814-1.932-3.22l-15.135-4.469-.046-.696c-.324-4.917-1.282-9.797-2.847-14.505-1.563-4.704-3.719-9.186-6.404-13.319l-.38-.585,9.447-12.642c.869-1.164.705-2.771-.381-3.736l-15.828-14.057c-1.085-.963-2.698-.937-3.755.064l-11.461,10.894-.626-.308c-.518-.255-1.04-.501-1.57-.742l-.605-.268c-1.829-.81-3.758-1.541-5.732-2.173-.494-.159-.779-.652-.664-1.147.063-.274.233-.5.479-.635s.523-.161.788-.068c1.795.62,4.219,1.475,4.538,1.606l.835.339.22-.385c.135-.237.232-.493.289-.759l3.306-15.443.691-.098c9.767-1.387,19.106-5.311,27.011-11.347l.554-.424,13.351,8.474c1.227.779,2.816.494,3.695-.663l12.812-16.853c.881-1.157.73-2.764-.349-3.738l-11.711-10.578.259-.647c1.836-4.574,3.084-9.388,3.709-14.308.626-4.923.622-9.896-.01-14.78l-.09-.691,13.985-7.311c1.288-.673,1.836-2.191,1.273-3.532l-2.871-6.845ZM111.729,245.036c2.962,8.907,2.277,18.437-1.927,26.83-4.206,8.395-11.429,14.647-20.337,17.608-3.642,1.212-7.39,1.813-11.121,1.813-5.39,0-10.747-1.255-15.708-3.74-8.394-4.205-14.647-11.428-17.609-20.336-2.961-8.909-2.277-18.438,1.928-26.83,4.206-8.395,11.428-14.648,20.336-17.609,8.911-2.963,18.44-2.276,26.831,1.928,8.394,4.205,14.647,11.427,17.608,20.336Z" fill="url(#rb2-glass-fill-ci-layer1)"></path><path class="layer2" d="M168.196,101.126h-46.019c8.08,7.455,12.572,18.568,11.083,30.28-1.183,9.299-5.925,17.589-13.355,23.344-6.229,4.825-13.714,7.375-21.45,7.375-1.49,0-2.989-.095-4.492-.286-19.225-2.444-32.877-20.074-30.434-39.298,1.079-8.491,5.163-15.964,11.089-21.415h-33.733l3.965,3.581-.26.647c-1.835,4.573-3.083,9.387-3.708,14.308-.625,4.92-.622,9.893.01,14.78l.089.691-13.985,7.311c-1.288.673-1.836,2.192-1.273,3.532l8.188,19.522c.555,1.32,2.052,2.011,3.412,1.566l15.047-4.864.431.548c6.141,7.823,14.202,13.958,23.311,17.745l.645.268-.647,15.426.536-.015c.705-.021,1.409-.038,2.115-.014l.374.01c.465.006.929.019,1.393.035.621.023,1.24.059,1.861.102l.143.01c.457.031.913.062,1.369.104.2.019.525.056.873.097.272.032.514.17.682.388.167.217.238.486.2.757-.076.537-.555.913-1.099.861-1.139-.115-2.54-.253-2.579-.255-1.083-.069-2.163-.108-3.215-.116-.974-.005-2.594.032-3.588.084l-.558.03-6.229-14.512c-.572-1.336-2.045-1.995-3.425-1.539l-20.089,6.679c-1.379.459-2.163,1.87-1.822,3.283l3.7,15.354-.581.388c-8.204,5.476-14.927,13.054-19.442,21.916l-.316.621-15.704-1.864c-1.44-.166-2.752.777-3.043,2.197l-4.261,20.737c-.292,1.424.538,2.808,1.932,3.22l15.135,4.469.046.696c.324,4.917,1.282,9.796,2.847,14.502,1.564,4.707,3.719,9.188,6.403,13.322l.38.585-9.445,12.642c-.871,1.165-.707,2.771.38,3.734l15.829,14.06c1.086.964,2.7.935,3.754-.064l11.46-10.895.625.308c8.921,4.396,18.848,6.441,28.693,5.913l.697-.037,6.23,14.513c.452,1.052,1.457,1.685,2.534,1.685.295,0,.596-.047.892-.146l20.088-6.679c1.378-.458,2.161-1.87,1.822-3.284l-3.7-15.353.58-.388c8.207-5.477,14.93-13.055,19.441-21.916l.316-.621,15.707,1.864c1.414.16,2.756-.807,3.041-2.197l4.26-20.736c.289-1.4-.56-2.814-1.932-3.22l-15.135-4.469-.046-.696c-.324-4.917-1.282-9.797-2.847-14.505-1.563-4.704-3.719-9.186-6.404-13.319l-.38-.585,9.447-12.642c.869-1.164.705-2.771-.381-3.736l-15.828-14.057c-1.085-.963-2.698-.937-3.755.064l-11.461,10.894-.626-.308c-.518-.255-1.04-.501-1.57-.742l-.605-.268c-1.829-.81-3.758-1.541-5.732-2.173-.494-.159-.779-.652-.664-1.147.063-.274.233-.5.479-.635s.523-.161.788-.068c1.795.62,4.219,1.475,4.538,1.606l.835.339.22-.385c.135-.237.232-.493.289-.759l3.306-15.443.691-.098c9.767-1.387,19.106-5.311,27.011-11.347l.554-.424,13.351,8.474c1.227.779,2.816.494,3.695-.663l12.812-16.853c.881-1.157.73-2.764-.349-3.738l-11.711-10.578.259-.647c1.836-4.574,3.084-9.388,3.709-14.308.626-4.923.622-9.896-.01-14.78l-.09-.691,13.985-7.311c1.288-.673,1.836-2.191,1.273-3.532l-2.871-6.845ZM111.729,245.036c2.962,8.907,2.277,18.437-1.927,26.83-4.206,8.395-11.429,14.647-20.337,17.608-3.642,1.212-7.39,1.813-11.121,1.813-5.39,0-10.747-1.255-15.708-3.74-8.394-4.205-14.647-11.428-17.609-20.336-2.961-8.909-2.277-18.438,1.928-26.83,4.206-8.395,11.428-14.648,20.336-17.609,8.911-2.963,18.44-2.276,26.831,1.928,8.394,4.205,14.647,11.427,17.608,20.336Z" fill="url(#rb2-glass-fill-ci-layer2)"></path><path class="layer3" d="M168.196,101.126h-46.019c8.08,7.455,12.572,18.568,11.083,30.28-1.183,9.299-5.925,17.589-13.355,23.344-6.229,4.825-13.714,7.375-21.45,7.375-1.49,0-2.989-.095-4.492-.286-19.225-2.444-32.877-20.074-30.434-39.298,1.079-8.491,5.163-15.964,11.089-21.415h-33.733l3.965,3.581-.26.647c-1.835,4.573-3.083,9.387-3.708,14.308-.625,4.92-.622,9.893.01,14.78l.089.691-13.985,7.311c-1.288.673-1.836,2.192-1.273,3.532l8.188,19.522c.555,1.32,2.052,2.011,3.412,1.566l15.047-4.864.431.548c6.141,7.823,14.202,13.958,23.311,17.745l.645.268-.647,15.426.536-.015c.705-.021,1.409-.038,2.115-.014l.374.01c.465.006.929.019,1.393.035.621.023,1.24.059,1.861.102l.143.01c.457.031.913.062,1.369.104.2.019.525.056.873.097.272.032.514.17.682.388.167.217.238.486.2.757-.076.537-.555.913-1.099.861-1.139-.115-2.54-.253-2.579-.255-1.083-.069-2.163-.108-3.215-.116-.974-.005-2.594.032-3.588.084l-.558.03-6.229-14.512c-.572-1.336-2.045-1.995-3.425-1.539l-20.089,6.679c-1.379.459-2.163,1.87-1.822,3.283l3.7,15.354-.581.388c-8.204,5.476-14.927,13.054-19.442,21.916l-.316.621-15.704-1.864c-1.44-.166-2.752.777-3.043,2.197l-4.261,20.737c-.292,1.424.538,2.808,1.932,3.22l15.135,4.469.046.696c.324,4.917,1.282,9.796,2.847,14.502,1.564,4.707,3.719,9.188,6.403,13.322l.38.585-9.445,12.642c-.871,1.165-.707,2.771.38,3.734l15.829,14.06c1.086.964,2.7.935,3.754-.064l11.46-10.895.625.308c8.921,4.396,18.848,6.441,28.693,5.913l.697-.037,6.23,14.513c.452,1.052,1.457,1.685,2.534,1.685.295,0,.596-.047.892-.146l20.088-6.679c1.378-.458,2.161-1.87,1.822-3.284l-3.7-15.353.58-.388c8.207-5.477,14.93-13.055,19.441-21.916l.316-.621,15.707,1.864c1.414.16,2.756-.807,3.041-2.197l4.26-20.736c.289-1.4-.56-2.814-1.932-3.22l-15.135-4.469-.046-.696c-.324-4.917-1.282-9.797-2.847-14.505-1.563-4.704-3.719-9.186-6.404-13.319l-.38-.585,9.447-12.642c.869-1.164.705-2.771-.381-3.736l-15.828-14.057c-1.085-.963-2.698-.937-3.755.064l-11.461,10.894-.626-.308c-.518-.255-1.04-.501-1.57-.742l-.605-.268c-1.829-.81-3.758-1.541-5.732-2.173-.494-.159-.779-.652-.664-1.147.063-.274.233-.5.479-.635s.523-.161.788-.068c1.795.62,4.219,1.475,4.538,1.606l.835.339.22-.385c.135-.237.232-.493.289-.759l3.306-15.443.691-.098c9.767-1.387,19.106-5.311,27.011-11.347l.554-.424,13.351,8.474c1.227.779,2.816.494,3.695-.663l12.812-16.853c.881-1.157.73-2.764-.349-3.738l-11.711-10.578.259-.647c1.836-4.574,3.084-9.388,3.709-14.308.626-4.923.622-9.896-.01-14.78l-.09-.691,13.985-7.311c1.288-.673,1.836-2.191,1.273-3.532l-2.871-6.845ZM111.729,245.036c2.962,8.907,2.277,18.437-1.927,26.83-4.206,8.395-11.429,14.647-20.337,17.608-3.642,1.212-7.39,1.813-11.121,1.813-5.39,0-10.747-1.255-15.708-3.74-8.394-4.205-14.647-11.428-17.609-20.336-2.961-8.909-2.277-18.438,1.928-26.83,4.206-8.395,11.428-14.648,20.336-17.609,8.911-2.963,18.44-2.276,26.831,1.928,8.394,4.205,14.647,11.427,17.608,20.336Z" fill="url(#rb2-glass-fill-ci-layer3)"></path></g><g class="gloss" fill="#fff8"><path d="M125.501,75.076c12.073,17.305,12.124,36.513,12.293,53.744.22,22.39-10.537,43.573-27,55.646,8.232-2.854,16.573-6.552,23.159-10.172,11.305-11.962,15.585-27.657,15.585-46.316s-2.305-30.841-6.695-39.951c-6.511-7.454-17.341-12.951-17.341-12.951Z"></path><path d="M120.855,194.088s-11.927,10.537-15.439,14.049c1.866,1.866,17.634,26.341,17.634,49.317s-16.463,43.976-32.561,52.61l7.244,18.878,13.061-4.792-5.685-15.911c13.404-9.444,25.989-23.42,25.989-51.663,0-15.293-4.463-33.366-11.78-41.634l11.341-12.439-9.805-8.415Z"></path></g><g class="icon-fill"><path d="M98.422,164.622c-1.577,0-3.169-.099-4.774-.303-20.592-2.618-35.216-21.5-32.598-42.093,2.617-20.592,21.491-35.222,42.094-32.598,20.592,2.618,35.215,21.5,32.598,42.093-2.414,18.988-18.659,32.901-37.319,32.901ZM98.371,92.325c-17.175,0-32.124,12.804-34.346,30.279-2.409,18.952,11.049,36.33,30.001,38.739,18.953,2.413,36.329-11.049,38.738-30s-11.049-36.33-30-38.739c-1.476-.188-2.943-.279-4.394-.279Z"></path><path d="M78.341,293.789c-5.775,0-11.512-1.345-16.825-4.007-8.991-4.504-15.689-12.239-18.862-21.781h0c-3.172-9.543-2.439-19.749,2.065-28.739,4.504-8.991,12.24-15.689,21.782-18.862,9.542-3.171,19.748-2.439,28.739,2.065,8.99,4.504,15.688,12.239,18.861,21.781,3.172,9.543,2.439,19.749-2.065,28.74-4.504,8.99-12.239,15.688-21.781,18.861-3.903,1.297-7.918,1.941-11.914,1.941ZM45.5,267.053c2.92,8.782,9.084,15.901,17.359,20.047,8.274,4.145,17.667,4.821,26.448,1.899,8.782-2.919,15.901-9.084,20.047-17.357,4.145-8.274,4.819-17.668,1.899-26.449-2.919-8.782-9.084-15.901-17.357-20.046-8.273-4.146-17.667-4.82-26.449-1.9-8.782,2.919-15.901,9.084-20.046,17.358-4.145,8.273-4.82,17.667-1.9,26.448h0Z"></path><path d="M44.172,294.618c-3.967-3.514-7.417-7.669-10.183-12.371-.415-.706-1.304-.966-2.022-.571l-.005.003c-.735.404-1.007,1.339-.582,2.062,2.936,5,6.604,9.417,10.822,13.148.629.556,1.6.469,2.139-.175h0c.527-.628.443-1.552-.17-2.095Z"></path><path d="M62.125,207.24c3.604-1.198,7.249-1.968,10.88-2.348.814-.085,1.418-.787,1.356-1.603h0c-.064-.836-.8-1.472-1.634-1.385-3.854.401-7.722,1.217-11.548,2.488-27.024,8.985-42.342,37.213-35.814,64.415.195.814,1.039,1.299,1.847,1.081h0c.791-.213,1.252-1.018,1.061-1.815-6.147-25.693,8.326-52.348,33.852-60.834Z"></path><path d="M83.244,176.217c-4.881-1.491-9.478-3.688-13.671-6.523-.678-.459-1.593-.311-2.071.355h0c-.488.681-.332,1.642.362,2.112,4.456,3.017,9.343,5.354,14.534,6.935.801.244,1.647-.238,1.87-1.045h0c.218-.79-.242-1.595-1.025-1.834Z"></path><path d="M56.677,159.434c.565-.514.638-1.369.186-1.984-7.855-10.689-11.249-23.765-9.571-36.973,1.132-8.902,4.482-17.169,9.692-24.181.489-.658.381-1.58-.263-2.087h0c-.658-.518-1.624-.404-2.124.268-5.528,7.426-9.081,16.187-10.28,25.622-1.779,13.99,1.823,27.84,10.15,39.157.517.703,1.537.79,2.183.203.009-.008.018-.017.027-.025Z"></path><path d="M173.372,107.003l-8.188-19.521c-1.05-2.507-3.902-3.814-6.486-2.979l-13.397,4.331c-6.096-7.494-13.907-13.44-22.696-17.277l.59-14.046c.115-2.76-1.864-5.105-4.604-5.453l-21.001-2.67c-2.739-.354-5.244,1.425-5.823,4.128l-2.944,13.746c-9.468,1.517-18.519,5.319-26.297,11.049l-11.887-7.545c-2.333-1.481-5.353-.938-7.025,1.261l-12.812,16.853c-1.672,2.199-1.387,5.254.664,7.106l10.425,9.416c-1.706,4.477-2.877,9.164-3.485,13.946-.608,4.781-.646,9.612-.115,14.375l-12.449,6.507c-2.409,1.259-3.472,4.208-2.421,6.714l8.188,19.523c1.069,2.548,3.857,3.824,6.486,2.978l13.397-4.331c6.096,7.494,13.908,13.44,22.697,17.278l-.327,7.778-3.177-7.401c-1.089-2.539-3.889-3.797-6.511-2.924l-20.089,6.679c-2.579.857-4.101,3.599-3.464,6.241l3.293,13.666c-7.88,5.464-14.395,12.809-18.928,21.34l-13.982-1.659c-2.742-.322-5.231,1.471-5.788,4.176l-4.261,20.737c-.556,2.706,1.023,5.337,3.673,6.12l13.473,3.979c.398,4.774,1.37,9.506,2.891,14.08,1.52,4.574,3.575,8.946,6.115,13.01l-8.408,11.254c-1.654,2.214-1.343,5.266.723,7.1l15.828,14.06c2.067,1.833,5.135,1.781,7.137-.122l10.205-9.7c.796.375,1.607.713,2.416,1.052.172,9.013-.081,20.097-1.336,29.021-6.163.397-11.881.906-16.958,1.522-22.046,2.675-22.046,5.974-22.046,7.559s0,4.884,22.046,7.559c13.423,1.628,31.258,2.524,50.219,2.524s36.795-1.665,50.219-3.293c22.046-2.675,22.046-5.205,22.046-6.79s0-4.884-22.046-7.559c-5.2-.631-11.075-1.148-17.409-1.549-4.018-17.476-5.613-28.004-6.03-35.673,7.487-5.395,13.699-12.489,18.061-20.699l13.981,1.659c2.687.316,5.24-1.513,5.788-4.176l4.261-20.736c.556-2.706-1.023-5.337-3.674-6.12l-13.472-3.979c-.399-4.773-1.37-9.506-2.891-14.082-1.521-4.574-3.577-8.945-6.116-13.009l8.409-11.253c1.653-2.213,1.342-5.267-.724-7.101l-15.828-14.058c-2.066-1.834-5.133-1.781-7.137.121l-9.427,8.961c.025-.092.063-.178.083-.272l2.943-13.747c9.469-1.517,18.521-5.319,26.298-11.049l11.887,7.545c2.332,1.479,5.354.938,7.025-1.261l12.812-16.852c1.646-2.163,1.354-5.285-.663-7.107l-10.425-9.416c1.706-4.477,2.878-9.164,3.486-13.946.607-4.784.646-9.614.114-14.374l12.45-6.508c2.448-1.28,3.488-4.167,2.419-6.714ZM121.211,347.109c-.263-1.095-.517-2.166-.764-3.215,16.002,1.055,27.126,2.778,32.388,4.433,1.6.503,1.616,2.751.017,3.255-8.375,2.641-31.669,5.458-65.923,5.458s-57.551-2.818-65.925-5.458c-1.6-.504-1.583-2.752.017-3.255,5.238-1.647,16.284-3.362,32.171-4.419-.177.987-.369,1.938-.576,2.844-.151.658.665,1.067,1.11.56,5.651-6.441,14.842-9.223,34.639-9.223s26.7,3.843,31.741,9.606c.441.504,1.259.065,1.103-.586ZM169.563,111.059l-14.295,7.472.135,1.037c.627,4.843.63,9.773.01,14.653-.62,4.879-1.857,9.651-3.677,14.185l-.389.971,11.97,10.811c.885.799,1.008,2.116.286,3.064l-12.812,16.853c-.72.948-2.02,1.184-3.029.543l-13.645-8.661-.831.635c-7.836,5.984-17.095,9.875-26.777,11.25l-1.037.147-3.379,15.785c-.05.235-.134.439-.234.616-.142-.06-.288-.11-.43-.169-.35-.145-2.863-1.028-4.565-1.616-.828-.286-1.719.209-1.917,1.062-.174.752.261,1.509.999,1.737,2.419.748,6.169,2.266,7.84,3.156l.938.462,11.714-11.134c.864-.819,2.187-.843,3.078-.052l15.828,14.057c.891.792,1.025,2.108.312,3.063l-9.656,12.921.57.877c2.661,4.097,4.798,8.54,6.349,13.205,1.552,4.668,2.501,9.506,2.822,14.38l.069,1.044,15.469,4.567c1.124.332,1.82,1.492,1.584,2.64l-4.261,20.736c-.235,1.148-1.328,1.932-2.495,1.801l-16.05-1.905-.475.933c-4.474,8.785-11.139,16.298-19.273,21.727l-.87.582,3.781,15.691c.278,1.159-.363,2.316-1.494,2.692l-20.088,6.679c-1.134.381-2.338-.167-2.809-1.261l-6.367-14.833-1.045.056c-9.769.522-19.602-1.505-28.446-5.862l-.938-.462-11.713,11.135c-.865.82-2.187.843-3.078.053l-15.828-14.06c-.891-.79-1.025-2.106-.312-3.062l9.654-12.921-.57-.877c-2.662-4.098-4.797-8.541-6.348-13.207-1.552-4.666-2.501-9.504-2.823-14.378l-.069-1.044-15.469-4.567c-1.134-.335-1.822-1.482-1.584-2.639l4.261-20.738c.24-1.167,1.317-1.938,2.496-1.801l16.049,1.905.475-.933c4.476-8.786,11.141-16.299,19.273-21.727l.871-.582-3.782-15.692c-.277-1.149.372-2.318,1.493-2.691l20.089-6.679c1.127-.374,2.338.166,2.808,1.261l5.898,13.738.469,1.095h0l.906-.048c.978-.052,2.579-.09,3.559-.084h.007c1.06.008,2.121.047,3.18.115.038.002,1.429.14,2.561.254.805.081,1.529-.488,1.643-1.288h0c.119-.839-.489-1.538-1.318-1.712-2.025-.424-4.97-.717-8.199-.348l.64-15.238-.967-.402c-9.03-3.753-17.021-9.836-23.11-17.592l-.646-.823-15.378,4.971c-1.115.363-2.343-.204-2.797-1.284l-8.188-19.522c-.457-1.09-.003-2.348,1.044-2.895l14.294-7.472-.134-1.037c-.627-4.846-.63-9.775-.01-14.653.621-4.878,1.857-9.65,3.676-14.185l.39-.971-11.971-10.812c-.877-.792-1.001-2.123-.286-3.064l12.812-16.853c.722-.947,2.024-1.183,3.03-.543l13.645,8.661.832-.635c7.835-5.984,17.094-9.875,26.776-11.25l1.036-.147,3.381-15.784c.249-1.165,1.326-1.93,2.511-1.781l21.001,2.67c1.172.149,2.035,1.171,1.985,2.351l-.677,16.128.967.402c9.03,3.753,17.021,9.837,23.11,17.591l.646.823,15.378-4.971c1.116-.359,2.343.202,2.798,1.285l8.188,19.522c.457,1.09.003,2.348-1.044,2.895Z"></path></g></svg>