<svg xmlns="http://www.w3.org/2000/svg"
    xmlns:xlink="http://www.w3.org/1999/xlink" viewBox="0 0 14.73 16">
    <defs>
        <style>.a{fill:#fff;}.b{mask:url(#a);}.c{opacity:0.43;}.d{fill:none;stroke:black;stroke-miterlimit:10;stroke-width:21px;}.e{opacity:0.3;}</style>
        <mask id="a" x="-1.25" y="-1.54" width="19.55" height="19.77" maskUnits="userSpaceOnUse">
            <g transform="translate(-298.31 -176.16)">
                <rect class="a" x="297.07" y="174.96" width="19.55" height="19.43"/>
                <path d="M305.68,176.16l1.59,1.59.82.82-.56.56-.29.29-.47-.47-.49-.49v2.37h-1.21v-2.37l-.48.48-.48.48-.27-.28-.58-.57.77-.77,1.65-1.64m0-1.54-.77.76L303.26,177l-.77.77-.77.77.77.77.58.58.27.27.64.64h0v1.09h3.39v-1.09h0l.64-.64.29-.29.56-.56.77-.77-.77-.77-.81-.82-1.6-1.59-.76-.77Z"/>
                <path class="a" d="M309.71,178.63l-1.13.8a29.87,29.87,0,0,0-7.93,8.81c-.23.39-.46.79-.68,1.21a7.45,7.45,0,0,0,1.81,1.59l.61-1.11a22.94,22.94,0,0,1,8-9l1.06-.71A7.34,7.34,0,0,0,309.71,178.63Z"/>
            </g>
        </mask>
    </defs>
    <g class="b">
        <circle class="a" cx="4.33" cy="4.92" r="0.78"/>
        <circle class="a" cx="9.13" cy="5.29" r="1.77"/>
        <path class="c" d="M311.18,188.72v0a6,6,0,0,0-.33-8.45c-1.05-.84-6.12-3.4-9-1.12,0,0,.43.62.43.62,2.11-.91,5.56.65,6.91,2.33a6.4,6.4,0,0,1,1,6.59h1Z" transform="translate(-298.31 -176.16)"/>
        <path class="a" d="M304.41,183.91a2.51,2.51,0,1,1-2.51,2.51,2.52,2.52,0,0,1,2.51-2.51m0-1a3.54,3.54,0,1,0,3.54,3.54,3.54,3.54,0,0,0-3.54-3.54Z" transform="translate(-298.31 -176.16)"/>
        <path class="a" d="M306.42,186.69a.27.27,0,0,1-.27-.27,1.74,1.74,0,0,0-1.74-1.74.27.27,0,1,1,0-.54,2.28,2.28,0,0,1,2.28,2.28A.27.27,0,0,1,306.42,186.69Z" transform="translate(-298.31 -176.16)"/>
        <path class="d" d="M299.66,189.93" transform="translate(-298.31 -176.16)"/>
        <path class="e" d="M303.33,190.42a22.59,22.59,0,0,1,7.69-8.56,4.67,4.67,0,0,0-.61-1.14s-.58-.85-1.05-.51a29.87,29.87,0,0,0-7.93,8.81C301.2,189.41,303.17,190.7,303.33,190.42Z" transform="translate(-298.31 -176.16)"/>
        <path class="a" d="M299.58,184.79a6.1,6.1,0,0,1,6.1-6.09,6,6,0,0,1,2.9.73l1.13-.8A7.37,7.37,0,0,0,300,189.45c.22-.42.45-.82.68-1.21A6.1,6.1,0,0,1,299.58,184.79Z" transform="translate(-298.31 -176.16)"/>
        <path class="a" d="M303.08,190.31l.13.06.1,0h0l.1,0,.07,0,.08,0,.31.1.14,0,.12,0h.05l.1,0,.19,0,.1,0h.05l.1,0,.34,0h.6a6.05,6.05,0,0,0,2.72-.64l2.18,0a7.34,7.34,0,0,1-7.87,1.24,6.89,6.89,0,0,1-.93-.49,7.45,7.45,0,0,1-1.81-1.59c.22-.42.45-.82.68-1.21a29.87,29.87,0,0,1,7.93-8.81l1.13-.8a7.34,7.34,0,0,1,1.76,1.62,6.18,6.18,0,0,1,.61.9,7.39,7.39,0,0,1-.86,8.5l0-.58,0-.35h-.84a6.1,6.1,0,0,0,1.44-3.93s0-.1,0-.16v-.1a2.83,2.83,0,0,0,0-.29s0-.08,0-.12,0-.07,0-.11l0-.23s0,0,0-.06,0-.08,0-.12l0-.12c0-.14-.06-.27-.1-.41l-.09-.27a3.65,3.65,0,0,0-.14-.35l0-.09c-.08-.17-.16-.34-.25-.5l-.14-.24-.14-.23a.44.44,0,0,1-.08-.11l-.08-.11-.17-.21a22.94,22.94,0,0,0-8,9l.29.17.07,0Z" transform="translate(-298.31 -176.16)"/>
        <path class="a" d="M309,189.9h0l1.86,0,0-.85H310l-.76,0c0-.09.15-.16.31-.29l.57-.55a1.68,1.68,0,0,0,.72-1.27,1.19,1.19,0,0,0-1.28-1.24c-.87,0-1.47.46-1.45,1.31l.84,0c.05-.42.21-.6.53-.6a.51.51,0,0,1,.52.55,1.05,1.05,0,0,1-.45.74l-.58.51a2.54,2.54,0,0,0-1,1.63Z" transform="translate(-298.31 -176.16)"/>
    </g>
    <polygon class="a" points="6.28 2.78 5.8 3.26 5.53 2.99 4.95 2.41 5.71 1.65 7.37 0 8.96 1.59 9.78 2.41 9.21 2.98 8.93 3.26 8.46 2.79 7.97 2.3 7.97 2.71 7.97 3.92 7.97 4.05 7.97 4.68 7.51 4.68 6.76 4.68 6.76 3.58 6.76 2.7 6.76 2.3 6.28 2.78"/>
</svg>