<?xml version="1.0" encoding="utf-8"?><!-- Generator: Adobe Illustrator 25.0.0, SVG Export Plug-In . SVG Version: 6.00 Build 0)  -->
<svg version="1.1" id="Main"
    xmlns="http://www.w3.org/2000/svg"
    xmlns:xlink="http://www.w3.org/1999/xlink" x="0px" y="0px" viewBox="0 0 15.1 15.5" style="enable-background:new 0 0 15.1 15.5;" xml:space="preserve">
    <style type="text/css">.st0{fill:white;stroke:black;stroke-miterlimit:10;}.st1{fill:none;stroke:black;stroke-miterlimit:10;}</style>
    <circle class="st0" cx="7.5" cy="7.7" r="6.6"/>
    <path class="st0" d="M8,2.5"/>
    <g>
        <path d="M7.8,7.3L7.8,7.3C7.8,7.3,7.8,7.3,7.8,7.3L7.8,7.3z M8.9,3.3C8.9,3.3,8.9,3.3,8.9,3.3c-0.4,0-0.8,0.4-0.8,0.8l-0.3,3l1.9-2.3c0.3-0.4,0.3-0.9,0-1.2C9.5,3.4,9.3,3.3,8.9,3.3z"/>
    </g>
    <path class="st1" d="M2.9,13.3"/>
    <g>
        <path d="M11.1,5.3c-0.2,0-0.4,0.1-0.6,0.2L8.2,7.5l3-0.3c0.5,0,0.8-0.4,0.8-0.8c0-0.4-0.1-0.6-0.3-0.9C11.6,5.4,11.4,5.3,11.1,5.3z"/>
    </g>
    <g>
        <path d="M8.2,8l2.3,1.9c0.4,0.3,0.9,0.3,1.2,0c0.2-0.2,0.3-0.5,0.3-0.8c0-0.4-0.4-0.8-0.8-0.8L8.2,8z M8.1,8C8.1,8,8.1,8,8.1,8L8.1,8z"/>
    </g>
    <g>
        <path d="M7.8,8.4l0.3,3c0,0.5,0.4,0.8,0.8,0.8c0.4,0,0.6-0.1,0.9-0.3c0.3-0.3,0.3-0.8,0-1.2L7.8,8.4z"/>
    </g>
    <g>
        <path d="M7.3,8.4l-1.9,2.3c-0.3,0.4-0.3,0.9,0,1.2c0.2,0.2,0.5,0.3,0.8,0.3c0,0,0,0,0,0c0.4,0,0.8-0.4,0.8-0.8L7.3,8.4z M7.3,8.3C7.3,8.3,7.3,8.3,7.3,8.3L7.3,8.3z"/>
    </g>
    <g>
        <path d="M6.9,8l-3,0.3c-0.5,0-0.8,0.4-0.8,0.8c0,0.4,0.1,0.6,0.3,0.9c0.3,0.3,0.8,0.3,1.2,0L6.9,8z M7,7.9L7,7.9L7,7.9z"/>
    </g>
    <g>
        <path d="M7.1,7.5L7.1,7.5C7.1,7.5,7.1,7.5,7.1,7.5L7.1,7.5z M4,5.3c-0.2,0-0.4,0.1-0.6,0.2C3.2,5.8,3.1,6.1,3.1,6.4c0,0.4,0.4,0.8,0.8,0.8l3,0.3L4.6,5.6C4.4,5.4,4.2,5.3,4,5.3z"/>
    </g>
    <g>
        <path d="M6.2,3.3c-0.3,0-0.6,0.1-0.8,0.3c-0.3,0.3-0.3,0.8,0,1.2l1.9,2.3L7,4.1C7,3.7,6.6,3.3,6.2,3.3C6.2,3.3,6.2,3.3,6.2,3.3z"/>
    </g>
</svg>