<svg xmlns="http://www.w3.org/2000/svg" viewBox="0 0 15.14 12.89">
    <path d="M8,4.49a1.58,1.58,0,0,1,.82.4,13.34,13.34,0,0,1,5,7.18v0l0,0a1.16,1.16,0,0,1,0,.92,1.13,1.13,0,0,1-.69.52,23.89,23.89,0,0,1-5.21.6,23.44,23.44,0,0,1-5.19-.6.85.85,0,0,1-.61-.41,1.35,1.35,0,0,1-.07-1,17.44,17.44,0,0,1,5-7.26A1.83,1.83,0,0,1,8,4.49m0-1.6a3.24,3.24,0,0,0-1.86.74,19.06,19.06,0,0,0-5.58,8,2.62,2.62,0,0,0,1.83,3.51A24.87,24.87,0,0,0,8,15.79a25.49,25.49,0,0,0,5.6-.65,2.62,2.62,0,0,0,1.83-3.51,15,15,0,0,0-5.58-8A3,3,0,0,0,8,2.89Z" transform="translate(-0.44 -2.89)"/>
    <rect x="3.91" y="7.04" width="7.29" height="5.21" rx="1.14"/>
</svg>