<svg xmlns="http://www.w3.org/2000/svg" version="1.1" viewBox="0 0 400 100" preserveAspectRatio="none">
    <path d="M46.985,15.689C81.233-4.967,157.787.162,177.614,14.264c20.782-12.821,60.543-11.538,72.843,3.419,20.04-15.527,78.357-19.658,98.502,2.422,39.231-14.103,51.849,16.097,51.001,34.758-.848,18.661-13.254,46.296-61.18,33.476-27.992,12.108-64.891,15.954-85.036-6.268-35.202,20.228-72.525,17.806-104.122,1.994-13.148,10.541-34.036,14.815-50.577.712-18.873,11.681-48.774,8.405-63.724-8.689-18.078,2.849-22.797-17.094-21.842-31.339.954-14.245,13.784-32.194,33.506-29.06Z" />
</svg>
