<?xml version="1.0" encoding="utf-8"?>
<!-- Generator: Adobe Illustrator 25.0.0, SVG Export Plug-In . SVG Version: 6.00 Build 0)  -->
<svg version="1.1" id="main_layer" xmlns="http://www.w3.org/2000/svg" xmlns:xlink="http://www.w3.org/1999/xlink" x="0px" y="0px"
	 viewBox="0 0 214 214" style="enable-background:new 0 0 214 214;" xml:space="preserve">
<style type="text/css">
	.st0{fill:#CCCCCC;}
	.st1{fill:none;stroke:#A3A3A3;stroke-width:8;stroke-miterlimit:10;}
	.st2{fill:#A3A3A3;}
	.st3{fill:none;stroke:#CCCCCC;stroke-width:3;stroke-linecap:round;stroke-miterlimit:10;}
</style>
<g id="bg">
	<rect class="st0" width="214" height="214"/>
</g>
<g id="fg">
	<g>
		<path class="st1" d="M154.2,139.1H52.4c-8.6,0-15.7-7-15.7-15.7V56.3c0-8.6,7-15.7,15.7-15.7h101.8c8.6,0,15.7,7,15.7,15.7v67.2
			C169.9,132.1,162.8,139.1,154.2,139.1z"/>
		<path class="st2" d="M79,86.3l-32.2,52.8h76.4L91,86.3C88.2,81.8,81.7,81.8,79,86.3z"/>
		<path class="st2" d="M118.9,108.6l-24,30.5h58.6l-24-30.5C126.8,105.2,121.6,105.2,118.9,108.6z"/>
		<circle class="st2" cx="139.8" cy="65.9" r="13.8"/>
	</g>
	<g>
		<g>
			<path class="st2" d="M163.1,160c-16.2,0-29.4-13.2-29.4-29.4c0-16.2,13.2-29.4,29.4-29.4c16.2,0,29.4,13.2,29.4,29.4
				C192.5,146.8,179.3,160,163.1,160z"/>
			<path class="st0" d="M163.1,105.2c14,0,25.4,11.4,25.4,25.4S177.1,156,163.1,156s-25.4-11.4-25.4-25.4S149.1,105.2,163.1,105.2
				 M163.1,97.2c-18.4,0-33.4,15-33.4,33.4s15,33.4,33.4,33.4s33.4-15,33.4-33.4S181.5,97.2,163.1,97.2L163.1,97.2z"/>
		</g>
		<g>
			<circle class="st0" cx="153.7" cy="124.1" r="4.5"/>
			<circle class="st0" cx="172.5" cy="124.1" r="4.5"/>
			<path class="st3" d="M157.9,141.6c3.3-4,6.8-4.2,10.4,0"/>
		</g>
	</g>
	<g>
		<path class="st2" d="M60.1,168.5v18.7h-5.3v-16h-2.7v16h-5.3v-18.7H60.1z"/>
		<path class="st2" d="M62.8,187.2v-18.7h13.3v18.7H62.8z M68.1,184.5h2.7v-13.3h-2.7V184.5z"/>
		<path class="st2" d="M89.4,184.5h2.7v-13.3h-2.7v-2.7h10.7v2.7h-2.7v13.3h2.7v2.7H89.4V184.5z"/>
		<path class="st2" d="M124.1,168.5v18.7h-5.3v-16h-2.7v16h-5.3v-16h-2.7v16h-5.3v-18.7H124.1z"/>
		<path class="st2" d="M134.8,179.2h-2.7v8h-5.3v-18.7h13.3v18.7h-5.3V179.2z M132.1,176.5h2.7v-5.3h-2.7V176.5z"/>
		<path class="st2" d="M150.8,176.5h5.3v10.7h-13.3v-18.7h13.3v2.7h-8v13.3h2.7V176.5z"/>
		<path class="st2" d="M164.1,184.5h5.3v2.7h-10.7v-18.7h10.7v2.7h-5.3v5.3h2.7v2.7h-2.7V184.5z"/>
	</g>
</g>
</svg>
