<?xml version="1.0" encoding="utf-8"?>
<!-- Generator: Adobe Illustrator 25.0.0, SVG Export Plug-In . SVG Version: 6.00 Build 0)  -->
<svg version="1.1" id="main_layer" xmlns="http://www.w3.org/2000/svg" xmlns:xlink="http://www.w3.org/1999/xlink" x="0px" y="0px"
	 viewBox="0 0 214 214" style="enable-background:new 0 0 214 214;" xml:space="preserve">
<style type="text/css">
	.st0{fill:#CCCCCC;}
	.st1{fill:none;stroke:#A3A3A3;stroke-width:8;stroke-miterlimit:10;}
	.st2{fill:#A3A3A3;}
</style>
<g id="bg">
	<rect class="st0" width="214" height="214"/>
</g>
<g id="fg">
	<g>
		<path class="st1" d="M154.2,139.1H52.4c-8.6,0-15.7-7-15.7-15.7V56.3c0-8.6,7-15.7,15.7-15.7h101.8c8.6,0,15.7,7,15.7,15.7v67.2
			C169.9,132.1,162.8,139.1,154.2,139.1z"/>
		<path class="st2" d="M79,86.3l-32.2,52.8h76.4L91,86.3C88.2,81.8,81.7,81.8,79,86.3z"/>
		<path class="st2" d="M118.9,108.6l-24,30.5h58.6l-24-30.5C126.8,105.2,121.6,105.2,118.9,108.6z"/>
		<circle class="st2" cx="139.8" cy="65.9" r="13.8"/>
	</g>
	<g>
		<path class="st2" d="M36.2,168.5v18.7h-5.3v-16h-2.7v16h-5.3v-18.7H36.2z"/>
		<path class="st2" d="M38.8,187.2v-18.7h13.3v18.7H38.8z M44.2,184.5h2.7v-13.3h-2.7V184.5z"/>
		<path class="st2" d="M68.2,181.9h2.7v-13.3h5.3v16h-5.3v2.7h-2.7v-2.7h-5.3v2.7h-2.7v-2.7h-5.3v-16h5.3v13.3h2.7v-13.3h5.3V181.9z
			"/>
		<path class="st2" d="M94.8,184.5h5.3v2.7H89.5v-18.7h5.3V184.5z"/>
		<path class="st2" d="M102.8,187.2v-18.7h13.3v18.7H102.8z M108.2,184.5h2.7v-13.3h-2.7V184.5z"/>
		<path class="st2" d="M126.8,179.2h-2.7v8h-5.3v-18.7h13.3v18.7h-5.3V179.2z M124.2,176.5h2.7v-5.3h-2.7V176.5z"/>
		<path class="st2" d="M134.8,187.2v-18.7h10.7v2.7h2.7v16H134.8z M140.2,184.5h2.7v-13.3h-2.7V184.5z"/>
		<path class="st2" d="M150.8,184.5h2.7v-13.3h-2.7v-2.7h10.7v2.7h-2.7v13.3h2.7v2.7h-10.7V184.5z"/>
		<path class="st2" d="M177.5,168.5v18.7h-5.3v-16h-2.7v16h-5.3v-18.7H177.5z"/>
		<path class="st2" d="M188.2,176.5h5.3v10.7h-13.3v-18.7h13.3v2.7h-8v13.3h2.7V176.5z"/>
	</g>
	<g>
		<path class="st2" d="M169.8,151.3c-2,0-3.9-0.9-5.2-2.6l-11.1-11l-0.2-0.3c-1.6-2.3-1.8-5.4-0.4-7.8c1.2-2.3,3.3-3.6,5.8-3.6h0.7
			v-18.8c0-3.3,2.5-6,5.7-6h9.6c3.1,0,5.7,2.7,5.7,6V126h0.7c2.4,0,4.6,1.3,5.8,3.6c1.3,2.5,1.1,5.6-0.4,7.8l-0.2,0.3l-11.1,11
			C173.7,150.4,171.8,151.3,169.8,151.3z"/>
		<path class="st0" d="M174.5,105.2c0.9,0,1.7,0.9,1.7,2v22.9l4.7-0.1c2.2,0,3.4,3.1,2,5.2l-11,10.9c-0.6,0.8-1.4,1.2-2.2,1.2
			s-1.6-0.4-2.2-1.2l-11-10.9c-1.4-2.1-0.2-5.2,2-5.2l4.7,0.1v-22.9c0-1.1,0.7-2,1.7-2L174.5,105.2 M174.5,97.2H165
			c-5.3,0-9.7,4.5-9.7,10v15.3c-2.5,0.9-4.7,2.7-6,5.2c-2,3.8-1.7,8.5,0.7,12l0.4,0.6l0.5,0.5l10.7,10.6c2,2.5,5,3.9,8.2,3.9
			s6.1-1.4,8.2-3.9l10.7-10.6l0.5-0.5l0.4-0.6c2.4-3.5,2.7-8.2,0.7-12c-1.3-2.5-3.5-4.3-6-5.2v-15.3
			C184.2,101.7,179.9,97.2,174.5,97.2L174.5,97.2z"/>
	</g>
</g>
</svg>
