<?xml version="1.0" encoding="utf-8"?>
<!-- Generator: Adobe Illustrator 25.0.0, SVG Export Plug-In . SVG Version: 6.00 Build 0)  -->
<svg version="1.1" id="main_layer" xmlns="http://www.w3.org/2000/svg" xmlns:xlink="http://www.w3.org/1999/xlink" x="0px" y="0px"
	 viewBox="0 0 214 214" style="enable-background:new 0 0 214 214;" xml:space="preserve">
<style type="text/css">
	.st0{fill:#CCCCCC;}
	.st1{fill:none;stroke:#A3A3A3;stroke-width:8;stroke-miterlimit:10;}
	.st2{fill:#A3A3A3;}
	.st3{font-family:'9px2bus';}
	.st4{font-size:24px;}
</style>
<g id="bg">
	<rect class="st0" width="214" height="214"/>
</g>
<g id="fg">
	<g>
		<path class="st1" d="M154.2,139.1H52.4c-8.6,0-15.7-7-15.7-15.7V56.3c0-8.6,7-15.7,15.7-15.7h101.8c8.6,0,15.7,7,15.7,15.7v67.2
			C169.9,132.1,162.8,139.1,154.2,139.1z"/>
		<path class="st2" d="M79,86.3l-32.2,52.8h76.4L91,86.3C88.2,81.8,81.7,81.8,79,86.3z"/>
		<path class="st2" d="M118.9,108.6l-24,30.5h58.6l-24-30.5C126.8,105.2,121.6,105.2,118.9,108.6z"/>
		<circle class="st2" cx="139.8" cy="65.9" r="13.8"/>
	</g>
	<text transform="matrix(1 0 0 1 29.5501 187.2998)" class="st2 st3 st4">PLACEHOLDER</text>
</g>
<g>
	<g>
		<path class="st2" d="M151.7,149.8v-7.3c-0.2,0-0.3,0-0.5,0c-1.4,0-2.7-0.3-3.9-0.8c-1.2-0.5-2.2-1.3-3.1-2.2
			c-0.9-0.9-1.5-1.9-2-3.1c-0.5-1.2-0.8-2.5-0.8-3.8c0-0.5,0-1.1,0.1-1.7c0.1-0.5,0.2-1,0.3-1.5l0.3-1.3c0.1-0.4,0.2-0.7,0.2-1
			l1.6-7.7c-0.3-0.4-0.5-0.8-0.8-1.2c-0.5-0.7-0.8-1.3-1.1-1.9c-0.4-0.9-0.6-1.9-0.6-3c0-1.1,0.2-2.2,0.7-3.2c0.4-1,1-1.8,1.8-2.5
			c0.7-0.7,1.5-1.3,2.5-1.7c1-0.4,2.1-0.7,3.2-0.7c1.2,0,2.4,0.3,3.4,0.8c0.5,0.2,1,0.5,1.4,0.8c0.1,0,0.2,0,0.3,0
			c0.3-0.6,0.7-1.3,1.1-1.9c0.7-1.1,1.5-2,2.5-2.9c0.9-0.9,2-1.6,3.1-2.2c1.1-0.6,2.3-1.1,3.6-1.4c1.3-0.3,2.6-0.5,4-0.5
			c2,0,4,0.4,5.8,1.1c1.8,0.7,3.4,1.8,4.8,3c1.4,1.3,2.6,2.8,3.4,4.6c0,0.1,0.1,0.1,0.1,0.2c0.1,0,0.2,0,0.3,0
			c0.4-0.3,0.9-0.6,1.4-0.8c1.1-0.5,2.2-0.8,3.4-0.8c1.1,0,2.2,0.2,3.2,0.7c1,0.4,1.8,1,2.5,1.7c0.7,0.7,1.3,1.6,1.7,2.5
			c0.4,1,0.7,2.1,0.7,3.2c0,1.1-0.2,2.1-0.6,3c-0.3,0.6-0.6,1.2-1,1.8l-0.9,1.3l1.5,7.6c0.1,0.3,0.1,0.6,0.2,0.9
			c0.1,0.5,0.2,0.9,0.3,1.4c0.1,0.5,0.2,0.9,0.3,1.4c0.1,0.6,0.2,1.2,0.2,1.8c0,1.3-0.3,2.6-0.8,3.8c-0.5,1.2-1.2,2.2-2,3.1
			c-0.9,0.9-1.9,1.6-3.1,2.2c-1.2,0.6-2.5,0.8-3.9,0.8c-0.2,0-0.3,0-0.5,0v7.3H151.7z M175.1,138.9v-8c-0.7,0.4-1.5,0.6-2.3,0.9
			c-1.3,0.4-2.6,0.6-3.9,0.6s-2.7-0.2-4-0.6c-0.8-0.2-1.5-0.5-2.3-0.9v8H175.1z"/>
		<path class="st0" d="M168.9,102c1.5,0,3,0.3,4.3,0.8c1.4,0.6,2.6,1.3,3.6,2.3c1,1,1.9,2.1,2.6,3.4c0.7,1.3,1,2.7,1.1,4.2
			c0.6-0.7,1.3-1.2,2-1.5c0.8-0.3,1.6-0.5,2.5-0.5c0.4-0.5,0.8-0.8,1.4-1.1c0.6-0.3,1.1-0.4,1.7-0.4c0.6,0,1.1,0.1,1.6,0.3
			c0.5,0.2,0.9,0.5,1.3,0.9c0.4,0.4,0.7,0.8,0.9,1.3c0.2,0.5,0.3,1,0.3,1.6c0,0.5-0.1,1-0.3,1.4c-0.2,0.4-0.4,0.8-0.7,1.2l-1.8,2.7
			l1.9,9.3c0.1,0.3,0.2,0.7,0.3,1.1c0.1,0.4,0.2,0.8,0.3,1.2c0.1,0.4,0.2,0.8,0.2,1.2c0.1,0.4,0.1,0.8,0.1,1.1
			c0,0.8-0.1,1.5-0.4,2.2c-0.3,0.7-0.7,1.3-1.2,1.9c-0.5,0.5-1.1,1-1.8,1.3s-1.4,0.5-2.2,0.5c-1.8,0-3.3-0.7-4.5-2v9.3h-26.3v-9.3
			c-0.4,0.3-0.7,0.6-1,0.9c-0.3,0.2-0.7,0.4-1,0.6c-0.3,0.2-0.7,0.3-1.1,0.4c-0.4,0.1-0.8,0.1-1.3,0.1c-0.8,0-1.5-0.2-2.2-0.5
			c-0.7-0.3-1.3-0.7-1.8-1.3c-0.5-0.5-0.9-1.2-1.2-1.9c-0.3-0.7-0.4-1.5-0.4-2.2c0-0.3,0-0.7,0.1-1.1c0.1-0.4,0.1-0.8,0.2-1.2
			c0.1-0.4,0.2-0.8,0.3-1.2c0.1-0.4,0.2-0.8,0.2-1.1l1.9-9.3c-0.3-0.4-0.6-0.9-0.9-1.3c-0.3-0.4-0.6-0.9-0.9-1.3
			c-0.3-0.4-0.5-0.8-0.7-1.2c-0.2-0.4-0.3-0.9-0.3-1.4c0-0.6,0.1-1.1,0.3-1.6c0.2-0.5,0.5-0.9,0.9-1.3c0.4-0.4,0.8-0.7,1.3-0.9
			c0.5-0.2,1-0.3,1.6-0.3c0.6,0,1.2,0.1,1.7,0.4c0.5,0.3,1,0.6,1.4,1.1c0.9,0,1.7,0.2,2.5,0.5c0.8,0.3,1.4,0.8,2,1.5
			c0.1-1,0.3-2,0.6-2.9c0.3-0.9,0.7-1.8,1.3-2.6c0.5-0.8,1.1-1.5,1.9-2.2c0.7-0.7,1.5-1.2,2.3-1.7c0.8-0.5,1.7-0.8,2.7-1.1
			C166.9,102.1,167.8,102,168.9,102 M168.9,126.8c1.2,0,2.3-0.2,3.4-0.7c1.1-0.5,2-1.1,2.8-1.9c0.8-0.8,1.4-1.7,1.9-2.8
			c0.5-1.1,0.7-2.2,0.7-3.4v-2.9h-1.5v-2.9h-5.8c-0.6,0-1.2-0.1-1.7-0.3c-0.5-0.2-1-0.5-1.4-0.9c-0.4-0.4-0.7-0.9-0.9-1.4
			c-0.2-0.5-0.3-1.1-0.3-1.7c-0.6,0-1.2,0.1-1.7,0.3c-0.5,0.2-1,0.5-1.4,0.9c-0.4,0.4-0.7,0.9-0.9,1.4c-0.2,0.5-0.3,1.1-0.3,1.7v2.9
			h-1.5v2.9c0,1.2,0.2,2.4,0.7,3.4c0.5,1.1,1.1,2,1.9,2.8c0.8,0.8,1.7,1.4,2.8,1.9C166.5,126.6,167.6,126.8,168.9,126.8 M182,118.1
			h4.4l2.6-3.9c0.1-0.1,0.2-0.2,0.2-0.3c0.1-0.1,0.1-0.2,0.1-0.4c0-0.3-0.1-0.6-0.3-0.9c-0.2-0.3-0.5-0.4-0.8-0.4
			c-0.2,0-0.4,0.1-0.6,0.2c-0.2,0.1-0.4,0.2-0.5,0.4c-0.2,0.2-0.3,0.3-0.4,0.5c-0.1,0.2-0.3,0.3-0.4,0.5h-1.3
			c-0.4,0-0.8,0.1-1.1,0.2s-0.7,0.4-0.9,0.6c-0.3,0.3-0.5,0.6-0.6,0.9c-0.1,0.4-0.2,0.7-0.2,1.1V118.1 M151.3,118.1h4.4v-1.4
			c0-0.4-0.1-0.8-0.2-1.1c-0.2-0.4-0.4-0.7-0.6-0.9c-0.3-0.3-0.6-0.5-0.9-0.6c-0.4-0.2-0.7-0.2-1.1-0.2h-1.3
			c-0.1-0.1-0.2-0.2-0.4-0.4c-0.1-0.2-0.3-0.3-0.4-0.5c-0.2-0.2-0.3-0.3-0.5-0.4c-0.2-0.1-0.3-0.2-0.5-0.2c-0.3,0-0.6,0.1-0.9,0.3
			c-0.2,0.2-0.4,0.5-0.4,0.8c0,0.2,0,0.3,0.1,0.4c0.1,0.1,0.1,0.2,0.2,0.4L151.3,118.1 M182,125.6c-0.2-0.2-0.5-0.4-0.9-0.7
			c-0.4-0.3-0.7-0.6-1.1-0.9c-0.4-0.3-0.8-0.6-1.1-0.8c-0.4-0.3-0.7-0.4-0.9-0.5c-0.4,0.9-1,1.7-1.6,2.4c-0.6,0.7-1.4,1.3-2.2,1.8
			c-0.8,0.5-1.6,0.9-2.6,1.1c-0.9,0.3-1.9,0.4-2.8,0.4s-1.9-0.1-2.8-0.4c-0.9-0.3-1.8-0.6-2.6-1.1c-0.8-0.5-1.5-1.1-2.2-1.8
			c-0.6-0.7-1.2-1.5-1.6-2.4c-0.2,0.1-0.5,0.2-0.9,0.5c-0.4,0.3-0.7,0.5-1.1,0.8c-0.4,0.3-0.8,0.6-1.1,0.9c-0.4,0.3-0.6,0.5-0.9,0.7
			v-6H151c-0.3,1.5-0.6,3.1-0.9,4.6c-0.3,1.5-0.6,3.1-0.9,4.6c-0.1,0.3-0.1,0.6-0.2,0.9c-0.1,0.3-0.2,0.7-0.3,1
			c-0.1,0.4-0.2,0.7-0.2,1c-0.1,0.3-0.1,0.6-0.1,0.9c0,0.4,0.1,0.7,0.2,1.1c0.1,0.4,0.4,0.7,0.6,0.9c0.3,0.3,0.6,0.5,0.9,0.7
			c0.3,0.2,0.7,0.2,1.1,0.2c0.9,0,1.6-0.3,2.2-0.9l5.2-5v13.2h20.5v-13.2l5.2,5c0.6,0.6,1.3,0.9,2.2,0.9c0.4,0,0.7-0.1,1.1-0.2
			c0.3-0.2,0.6-0.4,0.9-0.7c0.3-0.3,0.5-0.6,0.6-0.9c0.1-0.4,0.2-0.7,0.2-1.1c0-0.3,0-0.6-0.1-0.9c-0.1-0.3-0.1-0.7-0.2-1
			c-0.1-0.4-0.2-0.7-0.3-1c-0.1-0.3-0.2-0.7-0.2-0.9l-1.9-9.2H182V125.6 M173.3,113.7c0.4,0,0.7,0.1,1,0.4c0.3,0.3,0.4,0.6,0.4,1
			v1.5c0,0.4-0.1,0.7-0.4,1c-0.3,0.3-0.6,0.4-1,0.4c-0.4,0-0.7-0.1-1-0.4c-0.3-0.3-0.4-0.6-0.4-1v-1.5c0-0.4,0.1-0.8,0.4-1
			C172.5,113.8,172.8,113.7,173.3,113.7 M164.5,113.7c0.4,0,0.8,0.1,1,0.4c0.3,0.3,0.4,0.6,0.4,1v1.5c0,0.4-0.1,0.7-0.4,1
			c-0.3,0.3-0.6,0.4-1,0.4c-0.4,0-0.7-0.1-1-0.4c-0.3-0.3-0.4-0.6-0.4-1v-1.5c0-0.4,0.1-0.7,0.4-1
			C163.7,113.8,164.1,113.7,164.5,113.7 M170.3,118.1c0,0.4-0.1,0.7-0.4,1c-0.3,0.3-0.6,0.4-1,0.4c-0.4,0-0.7-0.1-1-0.4
			c-0.3-0.3-0.4-0.6-0.4-1H170.3 M168.9,121c0.4,0,0.8,0.1,1,0.4c0.3,0.3,0.4,0.6,0.4,1s-0.1,0.8-0.4,1c-0.3,0.3-0.6,0.4-1,0.4
			s-0.8-0.1-1-0.4c-0.3-0.3-0.4-0.6-0.4-1s0.1-0.8,0.4-1C168.1,121.1,168.5,121,168.9,121 M168.9,94c-1.7,0-3.4,0.2-5,0.6
			c-1.6,0.4-3.1,1-4.5,1.8c-1.4,0.8-2.7,1.7-3.9,2.8c-0.9,0.8-1.7,1.7-2.4,2.6c-1.2-0.4-2.3-0.5-3.6-0.5c-1.7,0-3.3,0.3-4.8,1
			c-1.4,0.6-2.6,1.5-3.7,2.5c-1.1,1.1-2,2.3-2.6,3.8c-0.7,1.5-1,3.1-1,4.8c0,1.6,0.3,3.2,0.9,4.6c0.3,0.8,0.8,1.6,1.3,2.4l-1.2,6.1
			c0,0.2-0.1,0.5-0.2,0.9c-0.1,0.4-0.2,0.8-0.3,1.2c-0.1,0.6-0.3,1.2-0.3,1.8c-0.1,0.8-0.2,1.6-0.2,2.3c0,1.9,0.4,3.7,1.1,5.3
			c0.7,1.6,1.6,3.1,2.8,4.3c1.2,1.3,2.7,2.3,4.3,3c0.7,0.3,1.3,0.5,2,0.7v7.8h8H182h8v-7.8c0.7-0.2,1.4-0.4,2-0.7
			c1.6-0.7,3.1-1.8,4.3-3c1.2-1.3,2.2-2.7,2.8-4.3c0.7-1.7,1.1-3.5,1.1-5.3c0-0.8-0.1-1.6-0.2-2.4c-0.1-0.5-0.2-1-0.3-1.6
			c-0.1-0.5-0.2-1-0.4-1.5c-0.1-0.3-0.1-0.5-0.2-0.7l-1.2-6c0.5-0.8,0.9-1.6,1.3-2.3c0.6-1.4,1-3,1-4.7c0-1.7-0.3-3.3-1-4.8
			c-0.6-1.4-1.5-2.7-2.6-3.8c-1.1-1.1-2.3-1.9-3.7-2.6c-1.5-0.7-3.1-1-4.8-1c-1.2,0-2.4,0.2-3.6,0.5c-0.7-0.9-1.5-1.8-2.4-2.6
			c-1.7-1.6-3.8-2.9-6-3.8C173.9,94.5,171.4,94,168.9,94L168.9,94z"/>
	</g>
</g>
</svg>
