<svg viewBox="0 0 24 24"><rect fill="transparent" width="24" height="24"/><circle class="icon-fill" cx="7.5" cy="7.608" r="1.1"/><path class="icon-fill" d="M19.6,20.608v-1.3h-2.4c0-.1.2-.2.5-.4l.8-.8c.6-.4,1-1.1,1.1-1.9,0-1-.7-1.8-1.7-1.8h-.2c-1.3,0-2.2.7-2.1,1.9h1.2c.1-.6.3-.9.8-.9.4,0,.8.3.8.7v.1c-.1.4-.3.8-.7,1.1l-.9.8c-.8.6-1.374,1.474-1.574,2.474l4.374.026Z"/><polygon class="icon-fill" points="10.4 4.508 9.7 5.208 9.3 4.808 8.4 3.908 9.5 2.808 12 .408 14.3 2.708 15.5 3.908 14.7 4.708 14.3 5.208 13.6 4.508 12.8 3.708 12.8 4.308 12.8 6.108 12.8 6.308 12.8 7.208 12.2 7.208 11.1 7.208 11.1 5.608 11.1 4.308 11.1 3.708 10.4 4.508"/><path class="icon-fill" d="M12.976,10.124c1.211-1.196,2.494-2.317,3.835-3.368-.457-.746-1.272-1.248-2.211-1.248-1.436,0-2.6,1.164-2.6,2.6,0,.818.385,1.539.976,2.016Z"/><path class="icon-fill" d="M10.1,12.908c.094,0,.182.018.273.027.2-.235.398-.472.603-.703-.281-.073-.57-.125-.876-.125-.2,0-.4.2-.4.4s.2.4.4.4Z"/><path class="icon-fill" d="M12.746,15.672c.07.132.21.236.354.236.2,0,.4-.2.4-.4,0-.228-.024-.449-.065-.664-.231.275-.466.546-.688.827Z"/><path class="icon-fill" d="M6.992,17.464c-.368-.573-.592-1.243-.592-1.956,0-2.1,1.7-3.7,3.7-3.7.376,0,.734.077,1.08.188.366-.406.746-.799,1.127-1.191-.67-.311-1.411-.496-2.206-.496-2.9,0-5.2,2.3-5.2,5.2,0,1.287.471,2.44,1.228,3.342.279-.468.568-.93.864-1.386Z"/><path class="icon-fill" d="M13.659,14.575c.083.301.141.611.141.934,0,1.925-1.579,3.557-3.481,3.677-.29.479-.562.969-.828,1.463.202.023.4.06.609.06,2.9,0,5.2-2.3,5.2-5.2,0-.792-.184-1.532-.493-2.2-.392.414-.777.833-1.148,1.266Z"/><path class="icon-fill" d="M23,12.592c0-2.36-.759-4.534-2.024-6.323l.01-.014c-.03-.038-.065-.076-.096-.114-.869-1.193-1.963-2.212-3.233-2.974l-1.467,1.467c.203.107.39.238.583.36l-.087.062c-4.7,3.5-8.7,7.9-11.7,13-.016.031-.036.062-.052.093-1.207-1.532-1.934-3.459-1.934-5.556,0-3.423,1.922-6.405,4.743-7.926l-1.465-1.465C3.113,5.131,1,8.613,1,12.592c0,6.075,4.925,11,11,11,2.341,0,4.507-.737,6.291-1.984h-4.211l.057-.283c-.686.168-1.399.267-2.137.267-1.462,0-2.84-.358-4.062-.979l.047-.058c2.63-5.261,6.596-9.752,11.422-13.032.995,1.446,1.593,3.185,1.593,5.069,0,1.02-.179,1.998-.493,2.913.055.226.093.458.093.704l-.008.124c-.094.754-.388,1.439-.836,1.976h.844v1.131c1.499-1.88,2.4-4.257,2.4-6.848Z"/></svg>