<svg xmlns="http://www.w3.org/2000/svg" viewBox="0 0 24 24">
  <path class="icon-fill" d="M4.757,19.152l.528-1.152.524,1.152,1.152.524-1.152.528-.524,1.148-.528-1.148-1.148-.528,1.148-.524Z" />
  <path class="icon-fill" d="M19.757,3.152l.528-1.152.524,1.152,1.152.524-1.152.528-.524,1.148-.528-1.148-1.148-.528,1.148-.524Z"/>
  <rect fill="none" y="0" width="24" height="24" />
  <g class="icon-fill">
    <polygon points="15.5 6.5 15.5 7.92 17.29 7.92 17.29 6.5 17.29 4.71 15.5 4.71 7.908 4.71 9.697 6.5 15.5 6.5"/>
    <path d="M2.39,1.73l-1.28,1.27,3.179,3.179-1.055,1.055-.524.524v3.483l.524.524,1.686,1.686.01-2.522-.43-.43v-2l1.055-1.055,3.234,3.234-1.555,1.555-.524.524v3.483l.524.524,2,2,.524.524h7.641l3.44,3.44,1.27-1.27L2.39,1.73ZM10.5,17.5l-2-2v-2l1.555-1.555,5.555,5.555h-5.11Z"/>
    <polygon points="14.694 11.5 19.5 11.5 19.5 16.308 21.29 18.099 21.29 17.5 21.29 11.5 21.29 9.71 19.5 9.71 12.905 9.71 14.694 11.5"/>
  </g>
</svg>