<svg xmlns="http://www.w3.org/2000/svg" viewBox="0 0 24 24">
  <path class="icon-fill" d="M19.5,11.5v6h-9l-2-2v-2l2-2h9M21.29,9.71h-11.531l-.524.524-2,2-.524.524v3.483l.524.524,2,2,.524.524h11.531v-9.58h0Z"/>
  <polygon class="icon-fill" points="4.92 10.92 4.5 10.5 4.5 8.5 6.5 6.5 15.5 6.5 15.5 7.92 17.29 7.92 17.29 6.5 17.29 4.71 15.5 4.71 6.5 4.71 5.759 4.71 5.234 5.234 3.234 7.234 2.71 7.759 2.71 8.5 2.71 10.5 2.71 11.241 3.234 11.766 4.92 13.451 4.92 10.92"/>
  <path class="icon-fill" d="M13.757,14.152l.528-1.152.524,1.152,1.152.524-1.152.528-.524,1.148-.528-1.148-1.148-.528s1.148-.524,1.148-.524Z"/>
  <path class="icon-fill" d="M4.757,19.152l.528-1.152.524,1.152,1.152.524-1.152.528-.524,1.148-.528-1.148-1.148-.528,1.148-.524Z"/>
  <path class="icon-fill" d="M19.757,3.152l.528-1.152.524,1.152,1.152.524-1.152.528-.524,1.148-.528-1.148-1.148-.528s1.148-.524,1.148-.524Z"/>
  <rect fill="none" width="24" height="24"/>
</svg>