<svg xmlns="http://www.w3.org/2000/svg" viewBox="0 0 24 24"><rect fill="none" width="24" height="24"/><path class="icon-fill" d="M18.061,2.909c-1.717,0-3.03,1.313-3.03,3.03,0,.505.101.909.303,1.313l-2.02,2.02c-.404-.202-.808-.303-1.313-.303-1.717,0-3.03,1.313-3.03,3.03,0,.505.101.909.303,1.313l-2.02,2.02c-.404-.202-.808-.303-1.313-.303-1.717,0-3.03,1.313-3.03,3.03s1.313,3.03,3.03,3.03,3.03-1.313,3.03-3.03c0-.505-.101-.909-.303-1.313l2.02-2.02c.404.202.808.303,1.313.303,1.717,0,3.03-1.313,3.03-3.03,0-.505-.101-.909-.303-1.313l2.02-2.02c.404.202.808.303,1.313.303,1.717,0,3.03-1.313,3.03-3.03s-1.313-3.03-3.03-3.03ZM5.939,19.071c-.606,0-1.01-.404-1.01-1.01s.404-1.01,1.01-1.01,1.01.404,1.01,1.01-.404,1.01-1.01,1.01ZM12,13.01c-.606,0-1.01-.404-1.01-1.01s.404-1.01,1.01-1.01,1.01.404,1.01,1.01-.404,1.01-1.01,1.01ZM18.061,6.949c-.606,0-1.01-.404-1.01-1.01s.404-1.01,1.01-1.01,1.01.404,1.01,1.01-.404,1.01-1.01,1.01Z"/></svg>