<svg xmlns="http://www.w3.org/2000/svg" viewBox="0 0 24 24"><rect fill="none" width="24" height="24"/><g class="icon-fill"><polygon points="15.696 4.711 15.696 8.385 19.37 4.711 15.696 4.711"/><path d="M11.696,2.711v8.285l-5.004,5.004-2.591-2.591-.708.708,2.591,2.591-.706.706-2.591-2.591-1.285,1.285,2.591,2.591,2.591,2.591,7.676-7.676h8.337V2.711h-10.902ZM21.597,5.711h-1s0-.813,0-.813l-5.903,5.903.002-1.416h0v-4.674h-1v6.902h1v1h-1.813l-6.203,6.203-.707-.707,6.723-6.723V3.711h8.902v2Z"/></g></svg>