<svg xmlns="http://www.w3.org/2000/svg" viewBox="0 0 24 24"><rect fill="none" width="24" height="24"/><g class="icon-fill"><circle cx="17.9" cy="5" r="2"/><circle cx="6" cy="7.5" r="2"/><circle cx="12.3" cy="9.2" r="2"/><circle cx="15.1" cy="14.3" r="2"/><circle cx="9.7" cy="16" r="2"/><path d="M15.8,21.1h-7.6c-1.3,0-2.4-.8-2.8-2l-2.2-7.1c-.2-.5.1-1.1.7-1.3.5-.2,1.1.1,1.3.7l2.2,7c0,.1.3.7.9.7h7.6c.6,0,.9-.6,1-.8l2.2-6.9c.2-.5.7-.8,1.3-.7.5.2.8.7.7,1.3l-2.2,7c-.7,1.3-1.8,2.1-3.1,2.1Z"/></g></svg>