<svg xmlns="http://www.w3.org/2000/svg" viewBox="0 0 24 24"><rect fill="none" width="24" height="24"/><g class="icon-fill"><path d="M12.525,11.375h0ZM13.994,5.708h0c-.525,0-1.154.525-1.154,1.154l-.42,4.198,2.729-3.254c.42-.525.42-1.259,0-1.679-.315-.21-.525-.42-1.154-.42Z"/><path d="M17.143,8.541c-.315,0-.525.105-.84.315l-3.254,2.834,4.198-.42c.735,0,1.154-.525,1.154-1.154s-.105-.84-.42-1.259c-.105-.105-.42-.315-.84-.315Z"/><path d="M13.05,12.425l3.254,2.729c.525.42,1.259.42,1.679,0,.315-.315.42-.735.42-1.154,0-.525-.525-1.154-1.154-1.154l-4.198-.42ZM12.945,12.425h0Z"/><path d="M12.525,12.95l.42,4.198c0,.735.525,1.154,1.154,1.154.525,0,.84-.105,1.259-.42.42-.42.42-1.154,0-1.679l-2.834-3.254Z"/><path d="M11.79,12.95l-2.729,3.254c-.42.525-.42,1.259,0,1.679.315.315.735.42,1.154.42h0c.525,0,1.154-.525,1.154-1.154,0,0,.42-4.198.42-4.198ZM11.79,12.845h0Z"/><path d="M11.16,12.425l-4.198.42c-.735,0-1.154.525-1.154,1.154,0,.525.105.84.42,1.259.42.42,1.154.42,1.679,0l3.254-2.834ZM11.37,12.215h0Z"/><path d="M11.475,11.69h0ZM7.067,8.541c-.292,0-.53.056-.79.374-.275.401-.469.781-.469,1.201,0,.525.525,1.154,1.154,1.154l4.198.42-3.254-2.729c-.21-.21-.525-.42-.84-.42Z"/><path d="M10.216,5.708c-.42,0-.84.21-1.154.42-.42.42-.42,1.154,0,1.679l2.729,3.254-.42-4.198c0-.525-.63-1.154-1.154-1.154h0Z"/><path d="M12,4.559c4.048,0,7.341,3.293,7.341,7.341s-3.293,7.341-7.341,7.341-7.341-3.293-7.341-7.341,3.293-7.341,7.341-7.341M12,2.559C6.842,2.559,2.659,6.742,2.659,11.9s4.182,9.341,9.341,9.341,9.341-4.182,9.341-9.341S17.158,2.559,12,2.559h0Z"/></g></svg>