<svg viewBox="0 0 24 24"><rect fill="transparent" width="24" height="24"/><path class="icon-fill" d="M22,16.5c0-0.2-0.1-0.3-0.1-0.5c-1.2-4.2-3.8-8-7.4-10.6c-0.7-0.6-1.5-0.9-2.4-1c-0.9,0.1-1.8,0.4-2.5,1C6.2,8.3,3.7,11.9,2.2,16c-0.7,1.8,0.2,3.8,1.9,4.5c0.2,0.1,0.3,0.1,0.5,0.1c2.4,0.6,4.9,0.9,7.4,0.9c2.5,0,5-0.3,7.4-0.9C21.2,20.2,22.4,18.3,22,16.5z M19.7,17.8c-0.2,0.3-0.5,0.6-0.9,0.7c-0.5,0.1-0.9,0.2-1.4,0.3c-0.3-1.2-0.7-2.3-1.4-3.3c-1-1.2-1.4-1.6-2.9-1.6h-2.2c-1.5,0-2,0.4-2.9,1.6c-0.7,1-1.1,2.1-1.4,3.4c-0.5-0.1-1-0.2-1.5-0.3c-0.3,0-0.6-0.2-0.8-0.5C4,17.5,4,17.1,4.1,16.6c1.3-3.7,3.6-7,6.6-9.6c0.4-0.3,0.8-0.4,1.3-0.5c0.4,0.1,0.8,0.2,1.1,0.5c3.2,2.3,5.5,5.7,6.6,9.5C19.8,17,19.8,17.4,19.7,17.8z"/></svg>